<?xml version="1.0" encoding="UTF-8" standalone="no"?>
<svg viewBox="0 0 135 131" version="1.1" id="svg1" xml:space="preserve" xmlns="http://www.w3.org/2000/svg" xmlns:svg="http://www.w3.org/2000/svg"><defs id="defs1"><rect x="143.39574" y="629.59686" width="412.26273" height="154.59853" id="rect3" /></defs><g id="layer1" transform="translate(-37.84216,-83.290395)"><path style="display:inline;fill:#006ce0;fill-opacity:1;stroke-width:0.189314" id="path3" d="m 172.67432,148.79639 a 67.309418,65.505989 0 0 1 -66.05639,65.49463 67.309418,65.505989 0 0 1 -68.51579,-63.05616 67.309418,65.505989 0 0 1 63.50545,-67.842323 67.309418,65.505989 0 0 1 70.88019,60.530293" /><rect
 style="fill:#075c8d;fill-opacity:1;stroke-width:0.18" id="rect2" width="128.93712" height="29.64072" x="40.531445" y="133.94437" ry="0.54041457" /><text xml:space="preserve" transform="matrix(0.26458333,0,0,0.26458333,20.071274,-31.325714)" id="text2" style="font-weight:100;font-size:120px;line-height:1;font-family:Inter;-inkscape-font-specification:'Inter Thin';text-align:justify;letter-spacing:2.95px;word-spacing:0.18px;white-space:pre;shape-inside:url(#rect3);fill:#075c8d;fill-opacity:1;stroke-width:0.680315"><tspan x="143.39648" y="725.65399" id="tspan2"><tspan style="font-weight:bold;-inkscape-font-specification:'Inter Bold';fill:#ffffff" id="tspan1">WebX</tspan></tspan></text><g transform="matrix(0.02641879,0,0,-0.02643363,37.710063,216.53228)" fill="#000000" stroke="none" id="g4" style="display:inline;fill:#ffffff;fill-opacity:1"><path d="m 2420,4883 c -306,-21 -622,-104 -870,-228 -96,-48 -110,-61 -110,-101 0,-38 32,-74 65,-74 12,0 67,21 121,46 132,62 263,109 403,144 116,29 312,62 320,54 3,-3 -22,-33 -55,-67 -150,-154 -348,-419 -471,-629 l -22,-38 h -436 c -239,0 -435,4 -435,8 0,11 202,207 270,262 30,25 60,52 67,60 33,41 -6,110 -62,110 -28,0 -51,-14 -123,-74 C 824,4141 625,3890 476,3590 437,3510 390,3401 371,3348 l -33,-97 -49,-10 C 178,3217 81,3139 34,3037 L 5,2975 v -415 -415 l 29,-62 c 47,-102 144,-180 255,-204 l 49,-10 33,-97 C 472,1478 679,1153 916,915 1624,207 2704,32 3600,480 c 143,71 170,93 170,134 0,37 -34,76 -67,76 -11,0 -80,-31 -154,-68 -150,-77 -313,-137 -469,-175 -106,-26 -302,-58 -309,-51 -2,2 28,38 68,79 133,141 352,436 458,617 l 22,38 h 436 c 240,0 435,-4 435,-9 0,-4 -61,-67 -135,-139 -145,-141 -153,-156 -114,-206 44,-56 102,-25 271,147 106,106 214,239 298,367 78,118 194,354 238,482 l 34,97 49,10 c 113,25 206,99 256,206 l 28,60 v 415 415 l -28,60 c -50,107 -143,181 -256,206 l -49,10 -33,97 c -46,132 -162,365 -247,492 -364,544 -920,908 -1552,1014 -173,29 -375,40 -530,29 z m 445,-168 c 99,-10 279,-54 403,-97 214,-73 421,-183 609,-324 80,-61 313,-280 313,-295 0,-5 -196,-9 -435,-9 h -436 l -22,38 c -105,180 -324,476 -457,615 -73,77 -82,92 -52,83 9,-2 44,-7 77,-11 z m -184,-123 c 63,-65 149,-161 191,-214 72,-89 268,-369 268,-382 0,-3 -261,-6 -580,-6 -319,0 -580,3 -580,6 0,13 196,293 268,382 80,99 298,332 312,332 4,0 59,-53 121,-118 z M 1655,3708 c -58,-123 -154,-365 -170,-430 l -7,-28 H 988 498 l 7,28 c 24,96 179,403 261,515 l 34,47 h 459 460 z m 1631,27 c 55,-110 126,-274 173,-402 l 30,-83 h -929 -929 l 28,78 c 68,182 154,378 207,468 l 26,44 671,-2 672,-3 z m 1086,30 c 71,-106 152,-257 202,-382 25,-61 46,-117 46,-122 0,-8 -151,-11 -489,-11 h -489 l -7,28 c -16,65 -112,307 -170,430 l -64,132 462,-2 462,-3 z m 453,-676 c 52,-15 119,-82 134,-134 15,-54 15,-735 0,-790 -14,-50 -84,-120 -136,-134 -53,-15 -4473,-15 -4526,0 -49,13 -105,63 -128,114 -17,36 -19,74 -19,415 0,415 1,421 68,483 63,60 -89,56 2337,57 1604,0 2241,-3 2270,-11 z M 1485,1843 c 16,-66 112,-308 170,-431 l 64,-132 -462,2 -462,3 -47,70 c -71,106 -152,257 -202,382 -25,61 -46,117 -46,122 0,8 151,11 489,11 h 489 z m 1974,-55 c -47,-129 -118,-293 -173,-403 l -51,-100 h -675 -675 l -62,125 c -55,109 -136,301 -178,421 l -14,39 h 929 929 z m 1161,70 c 0,-23 -85,-223 -132,-310 -25,-47 -72,-126 -104,-177 l -59,-91 h -462 -462 l 59,123 c 61,128 136,312 166,410 l 18,57 h 488 c 384,0 488,-3 488,-12 z M 1823,1093 c 123,-211 321,-476 471,-630 33,-34 58,-64 55,-67 -2,-2 -47,2 -99,10 -368,53 -704,194 -1007,420 -80,61 -313,280 -313,295 0,5 196,9 435,9 h 436 z m 1317,31 c 0,-13 -196,-293 -268,-382 -42,-53 -130,-150 -194,-217 L 2560,405 2443,525 c -65,67 -153,164 -195,217 -72,89 -268,369 -268,382 0,3 261,6 580,6 319,0 580,-3 580,-6 z" id="path1" style="fill:#ffffff;fill-opacity:1" /></g></g></svg>